<svg xmlns="http://www.w3.org/2000/svg" xmlns:xlink="http://www.w3.org/1999/xlink" width="2500" zoomAndPan="magnify" viewBox="0 0 1874.88 1874.999927" height="2500" preserveAspectRatio="xMidYMid meet" version="1.2"><defs><clipPath id="0321a28bda"><rect x="0" width="1760" y="0" height="1169"/></clipPath><clipPath id="0c0458db4f"><rect x="0" width="513" y="0" height="141"/></clipPath><clipPath id="9dedfdcfbc"><rect x="0" width="490" y="0" height="141"/></clipPath></defs><g id="1e5a81e886"><path style="fill:none;stroke-width:74;stroke-linecap:butt;stroke-linejoin:miter;stroke:#00fff1;stroke-opacity:1;stroke-miterlimit:4;" d="M -0.00051205 37.002496 L 2254.826182 37.002496 " transform="matrix(0.749952,-0.000000000000000465,0.000000000000000465,0.749952,97.512103,1296.492093)"/><g transform="matrix(1,0,0,1,49,353)"><g clip-path="url(#0321a28bda)"><g style="fill:#ffffff;fill-opacity:1;"><g transform="translate(0.44471, 907.388986)"><path style="stroke:none" d="M 157.484375 -662.984375 L 59.296875 -662.984375 L 59.296875 -531.75 L 9.71875 -531.75 L 9.71875 -443.28125 L 59.296875 -443.28125 L 59.296875 -171.09375 C 59.296875 -155.539062 60.101562 -137.554688 61.71875 -117.140625 C 63.34375 -96.722656 67.394531 -77.117188 73.875 -58.328125 C 81.007812 -40.179688 92.03125 -24.625 106.9375 -11.65625 C 121.84375 1.300781 143.550781 7.78125 172.0625 7.78125 C 187.613281 7.78125 200.25 6.804688 209.96875 4.859375 C 212.5625 4.210938 214.992188 3.5625 217.265625 2.90625 C 219.535156 2.257812 221.96875 1.613281 224.5625 0.96875 L 224.5625 -95.265625 C 222.613281 -94.617188 220.664062 -94.296875 218.71875 -94.296875 C 216.78125 -94.296875 214.835938 -93.972656 212.890625 -93.328125 C 209.648438 -92.671875 205.757812 -92.179688 201.21875 -91.859375 C 196.6875 -91.535156 192.476562 -91.375 188.59375 -91.375 C 180.8125 -91.375 174.8125 -94.613281 170.59375 -101.09375 C 166.382812 -107.582031 163.3125 -115.035156 161.375 -123.453125 C 159.425781 -132.523438 158.289062 -141.921875 157.96875 -151.640625 C 157.644531 -161.367188 157.484375 -170.445312 157.484375 -178.875 L 157.484375 -443.28125 L 224.5625 -443.28125 L 224.5625 -531.75 L 157.484375 -531.75 Z M 157.484375 -662.984375 "/></g></g><g style="fill:#ffffff;fill-opacity:1;"><g transform="translate(238.609803, 907.388986)"><path style="stroke:none" d="M 235.25 -430.640625 L 235.25 -539.515625 C 217.101562 -539.515625 202.035156 -536.597656 190.046875 -530.765625 C 178.054688 -524.929688 168.171875 -518.453125 160.390625 -511.328125 C 152.617188 -503.554688 146.953125 -495.941406 143.390625 -488.484375 C 139.828125 -481.035156 137.71875 -475.6875 137.0625 -472.4375 L 137.0625 -531.75 L 38.890625 -531.75 L 38.890625 0 L 137.0625 0 L 137.0625 -369.40625 C 137.0625 -377.820312 138.359375 -386.082031 140.953125 -394.1875 C 143.546875 -402.289062 149.378906 -410.226562 158.453125 -418 C 166.234375 -425.132812 174.492188 -429.671875 183.234375 -431.609375 C 191.984375 -433.554688 200.25 -434.53125 208.03125 -434.53125 C 212.570312 -434.53125 217.109375 -434.207031 221.640625 -433.5625 C 226.179688 -432.914062 230.71875 -431.941406 235.25 -430.640625 Z M 235.25 -430.640625 "/></g></g><g style="fill:#ffffff;fill-opacity:1;"><g transform="translate(469.970125, 907.388986)"><path style="stroke:none" d="M 187.609375 -405.375 L 187.609375 -347.046875 C 185.671875 -341.859375 180.488281 -336.832031 172.0625 -331.96875 C 163.632812 -327.113281 153.265625 -321.445312 140.953125 -314.96875 C 128.640625 -308.488281 115.675781 -300.546875 102.0625 -291.140625 C 88.457031 -281.742188 75.820312 -269.59375 64.15625 -254.6875 C 52.488281 -240.4375 42.765625 -222.453125 34.984375 -200.734375 C 27.210938 -179.023438 23.328125 -153.265625 23.328125 -123.453125 C 23.328125 -95.585938 26.242188 -73.066406 32.078125 -55.890625 C 37.910156 -38.722656 45.039062 -25.601562 53.46875 -16.53125 C 61.238281 -6.800781 69.660156 -0.316406 78.734375 2.921875 C 87.804688 6.160156 95.585938 7.78125 102.078125 7.78125 C 111.796875 7.78125 121.191406 5.992188 130.265625 2.421875 C 139.335938 -1.140625 147.113281 -5.507812 153.59375 -10.6875 C 160.71875 -15.875 166.382812 -21.382812 170.59375 -27.21875 C 174.8125 -33.050781 178.21875 -38.234375 180.8125 -42.765625 L 187.609375 -42.765625 C 187.609375 -39.523438 187.929688 -32.882812 188.578125 -22.84375 C 189.234375 -12.800781 191.828125 -5.1875 196.359375 0 L 292.609375 0 C 290.660156 -11.664062 289.035156 -23.976562 287.734375 -36.9375 C 286.441406 -49.894531 285.796875 -68.363281 285.796875 -92.34375 L 285.796875 -418.984375 C 285.796875 -436.472656 282.554688 -452.671875 276.078125 -467.578125 C 269.597656 -482.484375 260.847656 -495.125 249.828125 -505.5 C 225.847656 -528.175781 197.984375 -539.515625 166.234375 -539.515625 C 127.992188 -539.515625 96.5625 -525.582031 71.9375 -497.71875 C 60.269531 -484.757812 51.035156 -469.691406 44.234375 -452.515625 C 37.429688 -435.335938 34.03125 -417.03125 34.03125 -397.59375 L 34.03125 -375.234375 L 132.203125 -375.234375 C 132.203125 -379.117188 132.203125 -383.164062 132.203125 -387.375 C 132.203125 -391.59375 132.203125 -395.972656 132.203125 -400.515625 C 132.203125 -405.046875 132.363281 -409.414062 132.6875 -413.625 C 133.007812 -417.84375 133.5 -421.894531 134.15625 -425.78125 C 135.445312 -433.5625 138.035156 -440.203125 141.921875 -445.703125 C 145.816406 -451.210938 151.972656 -453.96875 160.390625 -453.96875 C 172.054688 -453.96875 180.160156 -448.460938 184.703125 -437.453125 C 185.992188 -432.910156 186.800781 -427.5625 187.125 -421.40625 C 187.445312 -415.25 187.609375 -409.90625 187.609375 -405.375 Z M 187.609375 -256.640625 L 187.609375 -120.546875 C 187.609375 -111.472656 183.554688 -103.859375 175.453125 -97.703125 C 167.359375 -91.546875 157.800781 -88.46875 146.78125 -88.46875 C 140.957031 -88.46875 136.257812 -90.410156 132.6875 -94.296875 C 129.125 -98.179688 126.375 -103.039062 124.4375 -108.875 C 122.488281 -114.0625 121.1875 -119.40625 120.53125 -124.90625 C 119.882812 -130.414062 119.5625 -134.796875 119.5625 -138.046875 C 119.5625 -163.316406 124.910156 -186.804688 135.609375 -208.515625 C 146.304688 -230.222656 163.640625 -246.265625 187.609375 -256.640625 Z M 187.609375 -256.640625 "/></g></g><g style="fill:#ffffff;fill-opacity:1;"><g transform="translate(779.098673, 907.388986)"><path style="stroke:none" d="M 59.296875 0 L 157.484375 0 L 157.484375 -443.28125 L 207.0625 -443.28125 L 207.0625 -531.75 L 157.484375 -531.75 L 157.484375 -545.359375 C 157.484375 -548.597656 157.484375 -552.160156 157.484375 -556.046875 C 157.484375 -559.929688 157.484375 -564.144531 157.484375 -568.6875 C 157.484375 -578.40625 158.453125 -588.125 160.390625 -597.84375 C 162.335938 -606.914062 165.414062 -614.691406 169.625 -621.171875 C 173.84375 -627.660156 180.164062 -630.90625 188.59375 -630.90625 C 191.832031 -630.90625 195.234375 -630.738281 198.796875 -630.40625 C 202.359375 -630.082031 205.757812 -629.597656 209 -628.953125 C 210.300781 -628.304688 211.757812 -627.984375 213.375 -627.984375 C 215 -627.984375 216.457031 -627.660156 217.75 -627.015625 L 217.75 -711.578125 L 206.09375 -714.5 C 198.957031 -717.09375 187.613281 -718.390625 172.0625 -718.390625 C 143.550781 -718.390625 121.84375 -712.066406 106.9375 -699.421875 C 92.03125 -686.785156 81.007812 -671.394531 73.875 -653.25 C 67.394531 -635.101562 63.34375 -616.144531 61.71875 -596.375 C 60.101562 -576.613281 59.296875 -559.929688 59.296875 -546.328125 L 59.296875 -531.75 L 9.71875 -531.75 L 9.71875 -443.28125 L 59.296875 -443.28125 Z M 59.296875 0 "/></g></g><g style="fill:#ffffff;fill-opacity:1;"><g transform="translate(998.793784, 907.388986)"><path style="stroke:none" d="M 59.296875 0 L 157.484375 0 L 157.484375 -443.28125 L 207.0625 -443.28125 L 207.0625 -531.75 L 157.484375 -531.75 L 157.484375 -545.359375 C 157.484375 -548.597656 157.484375 -552.160156 157.484375 -556.046875 C 157.484375 -559.929688 157.484375 -564.144531 157.484375 -568.6875 C 157.484375 -578.40625 158.453125 -588.125 160.390625 -597.84375 C 162.335938 -606.914062 165.414062 -614.691406 169.625 -621.171875 C 173.84375 -627.660156 180.164062 -630.90625 188.59375 -630.90625 C 191.832031 -630.90625 195.234375 -630.738281 198.796875 -630.40625 C 202.359375 -630.082031 205.757812 -629.597656 209 -628.953125 C 210.300781 -628.304688 211.757812 -627.984375 213.375 -627.984375 C 215 -627.984375 216.457031 -627.660156 217.75 -627.015625 L 217.75 -711.578125 L 206.09375 -714.5 C 198.957031 -717.09375 187.613281 -718.390625 172.0625 -718.390625 C 143.550781 -718.390625 121.84375 -712.066406 106.9375 -699.421875 C 92.03125 -686.785156 81.007812 -671.394531 73.875 -653.25 C 67.394531 -635.101562 63.34375 -616.144531 61.71875 -596.375 C 60.101562 -576.613281 59.296875 -559.929688 59.296875 -546.328125 L 59.296875 -531.75 L 9.71875 -531.75 L 9.71875 -443.28125 L 59.296875 -443.28125 Z M 59.296875 0 "/></g></g><g style="fill:#00fff1;fill-opacity:1;"><g transform="translate(1224.374543, 907.388986)"><path style="stroke:none" d="M 38.890625 -714.5 L 38.890625 0 L 143.875 0 L 143.875 -714.5 Z M 38.890625 -714.5 "/></g></g><g style="fill:#00fff1;fill-opacity:1;"><g transform="translate(1407.129675, 907.388986)"><path style="stroke:none" d="M 312.046875 -146.78125 L 312.046875 -567.71875 C 310.753906 -596.875 304.921875 -622.472656 294.546875 -644.515625 C 290.015625 -654.234375 284.34375 -663.789062 277.53125 -673.1875 C 270.726562 -682.582031 262.46875 -690.84375 252.75 -697.96875 C 243.03125 -705.101562 231.523438 -710.9375 218.234375 -715.46875 C 204.953125 -720.007812 189.5625 -722.28125 172.0625 -722.28125 C 154.5625 -722.28125 139.003906 -720.007812 125.390625 -715.46875 C 111.785156 -710.9375 100.125 -705.101562 90.40625 -697.96875 C 80.6875 -690.84375 72.582031 -682.582031 66.09375 -673.1875 C 59.613281 -663.789062 54.109375 -654.234375 49.578125 -644.515625 C 39.210938 -622.472656 33.378906 -596.875 32.078125 -567.71875 L 32.078125 -146.78125 C 33.378906 -116.976562 39.210938 -91.054688 49.578125 -69.015625 C 54.109375 -59.296875 59.613281 -49.898438 66.09375 -40.828125 C 72.582031 -31.753906 80.6875 -23.65625 90.40625 -16.53125 C 110.5 -0.320312 137.71875 7.78125 172.0625 7.78125 C 182.425781 7.78125 191.984375 6.96875 200.734375 5.34375 C 209.484375 3.726562 217.425781 1.625 224.5625 -0.96875 C 233.632812 13.9375 246.429688 26.894531 262.953125 37.90625 C 279.484375 48.925781 302.65625 54.4375 332.46875 54.4375 L 332.46875 -35 C 322.09375 -36.9375 313.664062 -40.171875 307.1875 -44.703125 C 300.707031 -49.242188 295.195312 -54.429688 290.65625 -60.265625 C 293.25 -65.453125 295.679688 -70.632812 297.953125 -75.8125 C 300.222656 -81 302.003906 -86.1875 303.296875 -91.375 C 309.128906 -112.113281 312.046875 -130.582031 312.046875 -146.78125 Z M 207.0625 -567.71875 L 207.0625 -146.78125 C 207.0625 -135.125 205.765625 -126.378906 203.171875 -120.546875 C 201.222656 -113.410156 197.816406 -107.25 192.953125 -102.0625 C 188.097656 -96.882812 181.132812 -94.296875 172.0625 -94.296875 C 163.632812 -94.296875 156.832031 -96.890625 151.65625 -102.078125 C 141.925781 -113.085938 137.0625 -127.988281 137.0625 -146.78125 L 137.0625 -567.71875 C 137.0625 -578.082031 138.359375 -586.828125 140.953125 -593.953125 C 142.898438 -600.441406 146.300781 -606.4375 151.15625 -611.9375 C 156.019531 -617.445312 162.988281 -620.203125 172.0625 -620.203125 C 181.132812 -620.203125 188.265625 -617.609375 193.453125 -612.421875 C 202.523438 -601.410156 207.0625 -586.507812 207.0625 -567.71875 Z M 207.0625 -567.71875 "/></g></g></g></g><path style="fill:none;stroke-width:102;stroke-linecap:butt;stroke-linejoin:miter;stroke:#ffffff;stroke-opacity:1;stroke-miterlimit:4;" d="M -0.00133158 50.999044 L 1541.613021 50.999044 " transform="matrix(0.749952,0.000000000000000166,-0.000000000000000166,0.749952,109.543967,445.522697)"/><g transform="matrix(1,0,0,1,81,1341)"><g clip-path="url(#0c0458db4f)"><g style="fill:#ffffff;fill-opacity:1;"><g transform="translate(3.967269, 112.370264)"><path style="stroke:none" d="M 31.140625 -3.21875 C 30.148438 -1.976562 28.828125 -1.046875 27.171875 -0.421875 C 25.515625 0.191406 23.488281 0.5 21.09375 0.5 C 18.695312 0.5 13.773438 -0.117188 6.328125 -1.359375 L 6.328125 -7.9375 C 6.660156 -7.9375 8.75 -7.726562 12.59375 -7.3125 C 16.4375 -6.90625 19.3125 -6.703125 21.21875 -6.703125 C 25.84375 -6.703125 28.15625 -11.003906 28.15625 -19.609375 C 28.15625 -20.179688 28.15625 -20.757812 28.15625 -21.34375 C 28.070312 -23.988281 25.507812 -27.234375 20.46875 -31.078125 C 15.425781 -34.921875 11.703125 -38.289062 9.296875 -41.1875 C 6.898438 -44.082031 5.703125 -47.019531 5.703125 -50 C 5.703125 -52.976562 5.742188 -55.046875 5.828125 -56.203125 C 5.910156 -57.359375 6.195312 -58.800781 6.6875 -60.53125 C 7.1875 -62.269531 7.9375 -63.515625 8.9375 -64.265625 C 11.5 -66.328125 15.382812 -67.359375 20.59375 -67.359375 L 32.375 -65.625 C 32.375 -61.988281 30.890625 -60.171875 27.921875 -60.171875 C 27.335938 -60.171875 26.753906 -60.210938 26.171875 -60.296875 L 21.09375 -61.03125 C 17.039062 -61.03125 14.554688 -60.125 13.640625 -58.3125 C 12.898438 -56.738281 12.53125 -54.441406 12.53125 -51.421875 C 12.53125 -48.398438 15.753906 -44.328125 22.203125 -39.203125 C 25.179688 -36.972656 27.4375 -35.195312 28.96875 -33.875 C 30.5 -32.550781 31.988281 -30.8125 33.4375 -28.65625 C 34.882812 -26.507812 35.609375 -24.421875 35.609375 -22.390625 C 35.609375 -20.367188 35.566406 -18.632812 35.484375 -17.1875 C 35.398438 -15.738281 35.210938 -14.019531 34.921875 -12.03125 C 34.628906 -10.050781 34.171875 -8.398438 33.546875 -7.078125 C 32.929688 -5.753906 32.128906 -4.46875 31.140625 -3.21875 Z M 31.140625 -3.21875 "/></g></g><g style="fill:#ffffff;fill-opacity:1;"><g transform="translate(45.395865, 112.370264)"><path style="stroke:none" d="M 60.546875 -5.703125 L 60.546875 -33.125 C 60.546875 -33.125 60.546875 -33.457031 60.546875 -34.125 C 60.546875 -46.363281 60.171875 -53.890625 59.421875 -56.703125 C 58.679688 -59.515625 56.328125 -60.921875 52.359375 -60.921875 L 40.8125 -57.0625 L 41.3125 -53.96875 L 41.3125 0 C 37.757812 0 35.671875 -0.242188 35.046875 -0.734375 C 34.429688 -1.234375 34.125 -2.890625 34.125 -5.703125 L 34 -33.125 C 34 -33.457031 34 -34.59375 34 -36.53125 C 34 -38.476562 34 -40.15625 34 -41.5625 C 34 -42.96875 33.976562 -44.3125 33.9375 -45.59375 C 33.894531 -46.875 33.8125 -48.585938 33.6875 -50.734375 C 33.5625 -52.890625 33.332031 -54.421875 33 -55.328125 C 32.664062 -56.242188 32.210938 -57.238281 31.640625 -58.3125 C 30.640625 -60.050781 28.734375 -60.921875 25.921875 -60.921875 L 14.265625 -56.578125 L 14.765625 -53.46875 L 14.765625 0 C 11.128906 0 9 -0.242188 8.375 -0.734375 C 7.75 -1.234375 7.4375 -2.890625 7.4375 -5.703125 L 7.4375 -66.625 C 11.082031 -66.625 13.210938 -66.476562 13.828125 -66.1875 C 14.453125 -65.894531 14.765625 -64.800781 14.765625 -62.90625 L 25.921875 -67.484375 C 31.878906 -67.484375 36.265625 -65.75 39.078125 -62.28125 L 52.359375 -67.484375 C 59.878906 -67.484375 64.363281 -65.722656 65.8125 -62.203125 C 67.257812 -58.691406 67.984375 -48.957031 67.984375 -33 L 67.984375 0 C 64.265625 0 62.09375 -0.242188 61.46875 -0.734375 C 60.851562 -1.234375 60.546875 -2.890625 60.546875 -5.703125 Z M 60.546875 -5.703125 "/></g></g><g style="fill:#ffffff;fill-opacity:1;"><g transform="translate(120.190599, 112.370264)"><path style="stroke:none" d="M 28.53125 -46.765625 L 28.53125 -53.71875 C 28.53125 -57.03125 28.132812 -59.117188 27.34375 -59.984375 C 26.5625 -60.847656 24.6875 -61.28125 21.71875 -61.28125 L 15.515625 -60.046875 C 14.679688 -59.878906 14.054688 -59.796875 13.640625 -59.796875 C 10.753906 -59.796875 9.3125 -61.65625 9.3125 -65.375 L 21.71875 -67.484375 C 27.914062 -67.484375 31.675781 -66.660156 33 -65.015625 C 33.664062 -64.179688 34.179688 -63.472656 34.546875 -62.890625 C 34.921875 -62.316406 35.148438 -61.285156 35.234375 -59.796875 C 35.484375 -57.398438 35.609375 -54.628906 35.609375 -51.484375 L 35.609375 0 C 31.878906 0 29.679688 -0.265625 29.015625 -0.796875 C 28.359375 -1.335938 28.03125 -3.140625 28.03125 -6.203125 C 27.207031 -5.703125 26.050781 -4.789062 24.5625 -3.46875 C 21.414062 -0.570312 18.769531 0.875 16.625 0.875 C 11.582031 0.875 8.582031 -0.71875 7.625 -3.90625 C 6.675781 -7.09375 6.203125 -15.921875 6.203125 -30.390625 C 6.203125 -35.929688 8.601562 -39.613281 13.40625 -41.4375 C 17.375 -42.925781 22.414062 -43.671875 28.53125 -43.671875 L 29.03125 -43.671875 Z M 28.03125 -36.71875 C 23.238281 -36.71875 19.617188 -36.363281 17.171875 -35.65625 C 14.734375 -34.957031 13.515625 -33.535156 13.515625 -31.390625 C 13.515625 -16.253906 13.847656 -7.984375 14.515625 -6.578125 C 14.847656 -5.992188 15.59375 -5.703125 16.75 -5.703125 C 17.90625 -5.703125 19.164062 -6.03125 20.53125 -6.6875 C 21.894531 -7.351562 23.34375 -8.242188 24.875 -9.359375 C 26.40625 -10.484375 27.625 -11.25 28.53125 -11.65625 L 28.03125 -14.765625 L 28.03125 -33.625 L 28.53125 -36.71875 Z M 28.03125 -36.71875 "/></g></g><g style="fill:#ffffff;fill-opacity:1;"><g transform="translate(162.611532, 112.370264)"><path style="stroke:none" d="M 7.4375 -5.703125 L 7.4375 -66.625 C 11.082031 -66.625 13.210938 -66.476562 13.828125 -66.1875 C 14.453125 -65.894531 14.765625 -64.800781 14.765625 -62.90625 L 14.765625 -61.53125 L 24.6875 -67.484375 C 26.09375 -67.484375 28.160156 -67.195312 30.890625 -66.625 C 30.890625 -63.726562 30.617188 -62.050781 30.078125 -61.59375 C 29.546875 -61.144531 27.75 -60.921875 24.6875 -60.921875 L 14.140625 -55.078125 L 14.765625 -51.984375 L 14.765625 0 C 11.128906 0 9 -0.242188 8.375 -0.734375 C 7.75 -1.234375 7.4375 -2.890625 7.4375 -5.703125 Z M 7.4375 -5.703125 "/></g></g><g style="fill:#ffffff;fill-opacity:1;"><g transform="translate(197.218234, 112.370264)"><path style="stroke:none" d="M 7.078125 -28.28125 L 7.078125 -56.828125 L 7.5625 -59.921875 L 2.234375 -59.921875 L 2.234375 -66.625 L 7.5625 -66.625 L 7.078125 -70.96875 L 7.078125 -76.421875 C 10.710938 -76.421875 12.835938 -76.171875 13.453125 -75.671875 C 14.078125 -75.179688 14.390625 -73.53125 14.390625 -70.71875 L 13.890625 -66.625 L 25.3125 -66.625 C 25.3125 -63.5625 25.039062 -61.675781 24.5 -60.96875 C 23.96875 -60.269531 22.253906 -59.921875 19.359375 -59.921875 L 13.890625 -59.921875 L 14.390625 -56.828125 L 14.390625 -28.28125 C 14.390625 -18.851562 14.632812 -12.734375 15.125 -9.921875 C 15.625 -7.109375 17.035156 -5.703125 19.359375 -5.703125 L 27.796875 -5.703125 L 27.796875 0 L 19.234375 0.625 C 13.523438 0.625 10.070312 -1.128906 8.875 -4.640625 C 7.675781 -8.160156 7.078125 -16.039062 7.078125 -28.28125 Z M 7.078125 -28.28125 "/></g></g><g style="fill:#ffffff;fill-opacity:1;"><g transform="translate(225.622898, 112.370264)"><path style="stroke:none" d=""/></g></g><g style="fill:#ffffff;fill-opacity:1;"><g transform="translate(249.190059, 112.370264)"><path style="stroke:none" d="M 31.140625 -3.21875 C 30.148438 -1.976562 28.828125 -1.046875 27.171875 -0.421875 C 25.515625 0.191406 23.488281 0.5 21.09375 0.5 C 18.695312 0.5 13.773438 -0.117188 6.328125 -1.359375 L 6.328125 -7.9375 C 6.660156 -7.9375 8.75 -7.726562 12.59375 -7.3125 C 16.4375 -6.90625 19.3125 -6.703125 21.21875 -6.703125 C 25.84375 -6.703125 28.15625 -11.003906 28.15625 -19.609375 C 28.15625 -20.179688 28.15625 -20.757812 28.15625 -21.34375 C 28.070312 -23.988281 25.507812 -27.234375 20.46875 -31.078125 C 15.425781 -34.921875 11.703125 -38.289062 9.296875 -41.1875 C 6.898438 -44.082031 5.703125 -47.019531 5.703125 -50 C 5.703125 -52.976562 5.742188 -55.046875 5.828125 -56.203125 C 5.910156 -57.359375 6.195312 -58.800781 6.6875 -60.53125 C 7.1875 -62.269531 7.9375 -63.515625 8.9375 -64.265625 C 11.5 -66.328125 15.382812 -67.359375 20.59375 -67.359375 L 32.375 -65.625 C 32.375 -61.988281 30.890625 -60.171875 27.921875 -60.171875 C 27.335938 -60.171875 26.753906 -60.210938 26.171875 -60.296875 L 21.09375 -61.03125 C 17.039062 -61.03125 14.554688 -60.125 13.640625 -58.3125 C 12.898438 -56.738281 12.53125 -54.441406 12.53125 -51.421875 C 12.53125 -48.398438 15.753906 -44.328125 22.203125 -39.203125 C 25.179688 -36.972656 27.4375 -35.195312 28.96875 -33.875 C 30.5 -32.550781 31.988281 -30.8125 33.4375 -28.65625 C 34.882812 -26.507812 35.609375 -24.421875 35.609375 -22.390625 C 35.609375 -20.367188 35.566406 -18.632812 35.484375 -17.1875 C 35.398438 -15.738281 35.210938 -14.019531 34.921875 -12.03125 C 34.628906 -10.050781 34.171875 -8.398438 33.546875 -7.078125 C 32.929688 -5.753906 32.128906 -4.46875 31.140625 -3.21875 Z M 31.140625 -3.21875 "/></g></g><g style="fill:#ffffff;fill-opacity:1;"><g transform="translate(290.618654, 112.370264)"><path style="stroke:none" d="M 7.078125 -28.28125 L 7.078125 -56.828125 L 7.5625 -59.921875 L 2.234375 -59.921875 L 2.234375 -66.625 L 7.5625 -66.625 L 7.078125 -70.96875 L 7.078125 -76.421875 C 10.710938 -76.421875 12.835938 -76.171875 13.453125 -75.671875 C 14.078125 -75.179688 14.390625 -73.53125 14.390625 -70.71875 L 13.890625 -66.625 L 25.3125 -66.625 C 25.3125 -63.5625 25.039062 -61.675781 24.5 -60.96875 C 23.96875 -60.269531 22.253906 -59.921875 19.359375 -59.921875 L 13.890625 -59.921875 L 14.390625 -56.828125 L 14.390625 -28.28125 C 14.390625 -18.851562 14.632812 -12.734375 15.125 -9.921875 C 15.625 -7.109375 17.035156 -5.703125 19.359375 -5.703125 L 27.796875 -5.703125 L 27.796875 0 L 19.234375 0.625 C 13.523438 0.625 10.070312 -1.128906 8.875 -4.640625 C 7.675781 -8.160156 7.078125 -16.039062 7.078125 -28.28125 Z M 7.078125 -28.28125 "/></g></g><g style="fill:#ffffff;fill-opacity:1;"><g transform="translate(319.023318, 112.370264)"><path style="stroke:none" d="M 7.4375 -5.703125 L 7.4375 -66.625 C 11.082031 -66.625 13.210938 -66.476562 13.828125 -66.1875 C 14.453125 -65.894531 14.765625 -64.800781 14.765625 -62.90625 L 14.765625 -61.53125 L 24.6875 -67.484375 C 26.09375 -67.484375 28.160156 -67.195312 30.890625 -66.625 C 30.890625 -63.726562 30.617188 -62.050781 30.078125 -61.59375 C 29.546875 -61.144531 27.75 -60.921875 24.6875 -60.921875 L 14.140625 -55.078125 L 14.765625 -51.984375 L 14.765625 0 C 11.128906 0 9 -0.242188 8.375 -0.734375 C 7.75 -1.234375 7.4375 -2.890625 7.4375 -5.703125 Z M 7.4375 -5.703125 "/></g></g><g style="fill:#ffffff;fill-opacity:1;"><g transform="translate(352.389456, 112.370264)"><path style="stroke:none" d="M 37.96875 -1.234375 C 31.59375 0.171875 27.144531 0.875 24.625 0.875 C 22.101562 0.875 20.160156 0.8125 18.796875 0.6875 C 17.429688 0.5625 16.191406 0.234375 15.078125 -0.296875 C 13.960938 -0.835938 12.988281 -1.296875 12.15625 -1.671875 C 11.332031 -2.046875 10.585938 -2.789062 9.921875 -3.90625 C 9.265625 -5.019531 8.726562 -5.925781 8.3125 -6.625 C 7.894531 -7.332031 7.5625 -8.554688 7.3125 -10.296875 C 7.070312 -12.035156 6.867188 -13.441406 6.703125 -14.515625 C 6.535156 -15.585938 6.410156 -17.34375 6.328125 -19.78125 C 6.242188 -22.226562 6.203125 -24.195312 6.203125 -25.6875 L 6.203125 -39.703125 C 6.203125 -45.160156 6.328125 -48.695312 6.578125 -50.3125 C 6.828125 -51.925781 7.070312 -53.640625 7.3125 -55.453125 C 7.5625 -57.273438 7.894531 -58.578125 8.3125 -59.359375 C 8.726562 -60.148438 9.265625 -61.125 9.921875 -62.28125 C 10.585938 -63.4375 11.332031 -64.238281 12.15625 -64.6875 C 12.988281 -65.144531 13.960938 -65.644531 15.078125 -66.1875 C 16.191406 -66.726562 17.429688 -67.078125 18.796875 -67.234375 C 20.160156 -67.398438 21.707031 -67.484375 23.4375 -67.484375 C 25.175781 -67.484375 26.75 -67.359375 28.15625 -67.109375 C 29.5625 -66.867188 30.738281 -66.375 31.6875 -65.625 C 32.644531 -64.882812 33.472656 -64.179688 34.171875 -63.515625 C 34.878906 -62.859375 35.457031 -61.785156 35.90625 -60.296875 C 36.363281 -58.804688 36.71875 -57.539062 36.96875 -56.5 C 37.21875 -55.46875 37.40625 -53.859375 37.53125 -51.671875 C 37.65625 -49.484375 37.71875 -47.726562 37.71875 -46.40625 L 37.71875 -39.953125 L 38.21875 -33.25 L 12.90625 -32.625 L 13.40625 -29.53125 C 13.40625 -18.9375 13.816406 -12.816406 14.640625 -11.171875 C 15.960938 -8.441406 17.492188 -6.867188 19.234375 -6.453125 C 20.390625 -6.117188 22.640625 -5.953125 25.984375 -5.953125 C 29.335938 -5.953125 33.332031 -6.488281 37.96875 -7.5625 Z M 14.140625 -49.125 C 14.140625 -47.632812 14.140625 -45.398438 14.140625 -42.421875 L 13.640625 -39.328125 L 31.265625 -39.328125 L 30.640625 -42.546875 C 30.640625 -49.171875 30.1875 -53.890625 29.28125 -56.703125 C 28.375 -59.515625 26.328125 -60.921875 23.140625 -60.921875 C 19.953125 -60.921875 17.695312 -60.070312 16.375 -58.375 C 15.050781 -56.675781 14.304688 -53.59375 14.140625 -49.125 Z M 14.140625 -49.125 "/></g></g><g style="fill:#ffffff;fill-opacity:1;"><g transform="translate(396.174782, 112.370264)"><path style="stroke:none" d="M 37.96875 -1.234375 C 31.59375 0.171875 27.144531 0.875 24.625 0.875 C 22.101562 0.875 20.160156 0.8125 18.796875 0.6875 C 17.429688 0.5625 16.191406 0.234375 15.078125 -0.296875 C 13.960938 -0.835938 12.988281 -1.296875 12.15625 -1.671875 C 11.332031 -2.046875 10.585938 -2.789062 9.921875 -3.90625 C 9.265625 -5.019531 8.726562 -5.925781 8.3125 -6.625 C 7.894531 -7.332031 7.5625 -8.554688 7.3125 -10.296875 C 7.070312 -12.035156 6.867188 -13.441406 6.703125 -14.515625 C 6.535156 -15.585938 6.410156 -17.34375 6.328125 -19.78125 C 6.242188 -22.226562 6.203125 -24.195312 6.203125 -25.6875 L 6.203125 -39.703125 C 6.203125 -45.160156 6.328125 -48.695312 6.578125 -50.3125 C 6.828125 -51.925781 7.070312 -53.640625 7.3125 -55.453125 C 7.5625 -57.273438 7.894531 -58.578125 8.3125 -59.359375 C 8.726562 -60.148438 9.265625 -61.125 9.921875 -62.28125 C 10.585938 -63.4375 11.332031 -64.238281 12.15625 -64.6875 C 12.988281 -65.144531 13.960938 -65.644531 15.078125 -66.1875 C 16.191406 -66.726562 17.429688 -67.078125 18.796875 -67.234375 C 20.160156 -67.398438 21.707031 -67.484375 23.4375 -67.484375 C 25.175781 -67.484375 26.75 -67.359375 28.15625 -67.109375 C 29.5625 -66.867188 30.738281 -66.375 31.6875 -65.625 C 32.644531 -64.882812 33.472656 -64.179688 34.171875 -63.515625 C 34.878906 -62.859375 35.457031 -61.785156 35.90625 -60.296875 C 36.363281 -58.804688 36.71875 -57.539062 36.96875 -56.5 C 37.21875 -55.46875 37.40625 -53.859375 37.53125 -51.671875 C 37.65625 -49.484375 37.71875 -47.726562 37.71875 -46.40625 L 37.71875 -39.953125 L 38.21875 -33.25 L 12.90625 -32.625 L 13.40625 -29.53125 C 13.40625 -18.9375 13.816406 -12.816406 14.640625 -11.171875 C 15.960938 -8.441406 17.492188 -6.867188 19.234375 -6.453125 C 20.390625 -6.117188 22.640625 -5.953125 25.984375 -5.953125 C 29.335938 -5.953125 33.332031 -6.488281 37.96875 -7.5625 Z M 14.140625 -49.125 C 14.140625 -47.632812 14.140625 -45.398438 14.140625 -42.421875 L 13.640625 -39.328125 L 31.265625 -39.328125 L 30.640625 -42.546875 C 30.640625 -49.171875 30.1875 -53.890625 29.28125 -56.703125 C 28.375 -59.515625 26.328125 -60.921875 23.140625 -60.921875 C 19.953125 -60.921875 17.695312 -60.070312 16.375 -58.375 C 15.050781 -56.675781 14.304688 -53.59375 14.140625 -49.125 Z M 14.140625 -49.125 "/></g></g><g style="fill:#ffffff;fill-opacity:1;"><g transform="translate(439.960108, 112.370264)"><path style="stroke:none" d="M 7.078125 -28.28125 L 7.078125 -56.828125 L 7.5625 -59.921875 L 2.234375 -59.921875 L 2.234375 -66.625 L 7.5625 -66.625 L 7.078125 -70.96875 L 7.078125 -76.421875 C 10.710938 -76.421875 12.835938 -76.171875 13.453125 -75.671875 C 14.078125 -75.179688 14.390625 -73.53125 14.390625 -70.71875 L 13.890625 -66.625 L 25.3125 -66.625 C 25.3125 -63.5625 25.039062 -61.675781 24.5 -60.96875 C 23.96875 -60.269531 22.253906 -59.921875 19.359375 -59.921875 L 13.890625 -59.921875 L 14.390625 -56.828125 L 14.390625 -28.28125 C 14.390625 -18.851562 14.632812 -12.734375 15.125 -9.921875 C 15.625 -7.109375 17.035156 -5.703125 19.359375 -5.703125 L 27.796875 -5.703125 L 27.796875 0 L 19.234375 0.625 C 13.523438 0.625 10.070312 -1.128906 8.875 -4.640625 C 7.675781 -8.160156 7.078125 -16.039062 7.078125 -28.28125 Z M 7.078125 -28.28125 "/></g></g><g style="fill:#ffffff;fill-opacity:1;"><g transform="translate(468.364772, 112.370264)"><path style="stroke:none" d="M 31.140625 -3.21875 C 30.148438 -1.976562 28.828125 -1.046875 27.171875 -0.421875 C 25.515625 0.191406 23.488281 0.5 21.09375 0.5 C 18.695312 0.5 13.773438 -0.117188 6.328125 -1.359375 L 6.328125 -7.9375 C 6.660156 -7.9375 8.75 -7.726562 12.59375 -7.3125 C 16.4375 -6.90625 19.3125 -6.703125 21.21875 -6.703125 C 25.84375 -6.703125 28.15625 -11.003906 28.15625 -19.609375 C 28.15625 -20.179688 28.15625 -20.757812 28.15625 -21.34375 C 28.070312 -23.988281 25.507812 -27.234375 20.46875 -31.078125 C 15.425781 -34.921875 11.703125 -38.289062 9.296875 -41.1875 C 6.898438 -44.082031 5.703125 -47.019531 5.703125 -50 C 5.703125 -52.976562 5.742188 -55.046875 5.828125 -56.203125 C 5.910156 -57.359375 6.195312 -58.800781 6.6875 -60.53125 C 7.1875 -62.269531 7.9375 -63.515625 8.9375 -64.265625 C 11.5 -66.328125 15.382812 -67.359375 20.59375 -67.359375 L 32.375 -65.625 C 32.375 -61.988281 30.890625 -60.171875 27.921875 -60.171875 C 27.335938 -60.171875 26.753906 -60.210938 26.171875 -60.296875 L 21.09375 -61.03125 C 17.039062 -61.03125 14.554688 -60.125 13.640625 -58.3125 C 12.898438 -56.738281 12.53125 -54.441406 12.53125 -51.421875 C 12.53125 -48.398438 15.753906 -44.328125 22.203125 -39.203125 C 25.179688 -36.972656 27.4375 -35.195312 28.96875 -33.875 C 30.5 -32.550781 31.988281 -30.8125 33.4375 -28.65625 C 34.882812 -26.507812 35.609375 -24.421875 35.609375 -22.390625 C 35.609375 -20.367188 35.566406 -18.632812 35.484375 -17.1875 C 35.398438 -15.738281 35.210938 -14.019531 34.921875 -12.03125 C 34.628906 -10.050781 34.171875 -8.398438 33.546875 -7.078125 C 32.929688 -5.753906 32.128906 -4.46875 31.140625 -3.21875 Z M 31.140625 -3.21875 "/></g></g></g></g><g transform="matrix(1,0,0,1,1326,1344)"><g clip-path="url(#9dedfdcfbc)"><g style="fill:#ffffff;fill-opacity:1;"><g transform="translate(4.468307, 112.235549)"><path style="stroke:none" d="M 31.140625 -3.21875 C 30.148438 -1.976562 28.828125 -1.046875 27.171875 -0.421875 C 25.515625 0.191406 23.488281 0.5 21.09375 0.5 C 18.695312 0.5 13.773438 -0.117188 6.328125 -1.359375 L 6.328125 -7.9375 C 6.660156 -7.9375 8.75 -7.726562 12.59375 -7.3125 C 16.4375 -6.90625 19.3125 -6.703125 21.21875 -6.703125 C 25.84375 -6.703125 28.15625 -11.003906 28.15625 -19.609375 C 28.15625 -20.179688 28.15625 -20.757812 28.15625 -21.34375 C 28.070312 -23.988281 25.507812 -27.234375 20.46875 -31.078125 C 15.425781 -34.921875 11.703125 -38.289062 9.296875 -41.1875 C 6.898438 -44.082031 5.703125 -47.019531 5.703125 -50 C 5.703125 -52.976562 5.742188 -55.046875 5.828125 -56.203125 C 5.910156 -57.359375 6.195312 -58.800781 6.6875 -60.53125 C 7.1875 -62.269531 7.9375 -63.515625 8.9375 -64.265625 C 11.5 -66.328125 15.382812 -67.359375 20.59375 -67.359375 L 32.375 -65.625 C 32.375 -61.988281 30.890625 -60.171875 27.921875 -60.171875 C 27.335938 -60.171875 26.753906 -60.210938 26.171875 -60.296875 L 21.09375 -61.03125 C 17.039062 -61.03125 14.554688 -60.125 13.640625 -58.3125 C 12.898438 -56.738281 12.53125 -54.441406 12.53125 -51.421875 C 12.53125 -48.398438 15.753906 -44.328125 22.203125 -39.203125 C 25.179688 -36.972656 27.4375 -35.195312 28.96875 -33.875 C 30.5 -32.550781 31.988281 -30.8125 33.4375 -28.65625 C 34.882812 -26.507812 35.609375 -24.421875 35.609375 -22.390625 C 35.609375 -20.367188 35.566406 -18.632812 35.484375 -17.1875 C 35.398438 -15.738281 35.210938 -14.019531 34.921875 -12.03125 C 34.628906 -10.050781 34.171875 -8.398438 33.546875 -7.078125 C 32.929688 -5.753906 32.128906 -4.46875 31.140625 -3.21875 Z M 31.140625 -3.21875 "/></g></g><g style="fill:#ffffff;fill-opacity:1;"><g transform="translate(45.896902, 112.235549)"><path style="stroke:none" d="M 3.21875 24.8125 L 3.21875 18.984375 C 7.113281 18.984375 10.15625 17.640625 12.34375 14.953125 C 14.53125 12.265625 15.625 8.894531 15.625 4.84375 C 15.625 3.1875 11.242188 -20.632812 2.484375 -66.625 C 6.035156 -66.625 8.160156 -66.394531 8.859375 -65.9375 C 9.566406 -65.476562 10.210938 -63.804688 10.796875 -60.921875 L 19.484375 -8.6875 L 21.09375 -8.6875 L 30.140625 -66.625 C 34.117188 -66.625 36.226562 -66.25 36.46875 -65.5 C 36.632812 -65.257812 36.71875 -64.804688 36.71875 -64.140625 C 36.71875 -59.921875 32.707031 -38.539062 24.6875 0 C 24.519531 0.738281 24.226562 2.265625 23.8125 4.578125 C 23.40625 6.898438 23.097656 8.472656 22.890625 9.296875 C 22.679688 10.128906 22.285156 11.472656 21.703125 13.328125 C 21.128906 15.191406 20.550781 16.492188 19.96875 17.234375 C 19.394531 17.984375 18.585938 18.976562 17.546875 20.21875 C 16.515625 21.457031 15.378906 22.328125 14.140625 22.828125 C 10.671875 24.148438 7.03125 24.8125 3.21875 24.8125 Z M 3.21875 24.8125 "/></g></g><g style="fill:#ffffff;fill-opacity:1;"><g transform="translate(85.216851, 112.235549)"><path style="stroke:none" d="M 34.234375 -5.703125 L 34.234375 -33.125 C 34.234375 -45.78125 33.863281 -53.578125 33.125 -56.515625 C 32.382812 -59.453125 30.148438 -60.921875 26.421875 -60.921875 L 14.265625 -56.578125 L 14.765625 -53.46875 L 14.765625 0 C 11.128906 0 9 -0.242188 8.375 -0.734375 C 7.75 -1.234375 7.4375 -2.890625 7.4375 -5.703125 L 7.4375 -66.625 C 11.082031 -66.625 13.210938 -66.476562 13.828125 -66.1875 C 14.453125 -65.894531 14.765625 -64.800781 14.765625 -62.90625 L 25.921875 -67.484375 C 33.367188 -67.484375 37.835938 -65.582031 39.328125 -61.78125 C 40.816406 -57.976562 41.5625 -48.382812 41.5625 -33 L 41.5625 0 C 37.925781 0 35.796875 -0.242188 35.171875 -0.734375 C 34.546875 -1.234375 34.234375 -2.890625 34.234375 -5.703125 Z M 34.234375 -5.703125 "/></g></g><g style="fill:#ffffff;fill-opacity:1;"><g transform="translate(133.591595, 112.235549)"><path style="stroke:none" d="M 6.203125 -33.25 L 6.203125 -41.1875 C 6.203125 -47.226562 6.347656 -51.03125 6.640625 -52.59375 C 6.929688 -54.164062 7.257812 -55.863281 7.625 -57.6875 C 8 -59.507812 8.453125 -60.769531 8.984375 -61.46875 C 9.523438 -62.175781 10.1875 -63.023438 10.96875 -64.015625 C 11.757812 -65.003906 12.734375 -65.664062 13.890625 -66 C 16.703125 -66.988281 19.554688 -67.484375 22.453125 -67.484375 L 32.75 -65.875 C 32.75 -62.238281 31.257812 -60.421875 28.28125 -60.421875 C 27.707031 -60.421875 27.128906 -60.460938 26.546875 -60.546875 L 22.453125 -60.921875 C 18.234375 -60.921875 15.671875 -59.160156 14.765625 -55.640625 C 13.859375 -52.128906 13.40625 -46.070312 13.40625 -37.46875 C 13.40625 -28.863281 13.441406 -23.28125 13.515625 -20.71875 C 13.597656 -18.15625 13.929688 -15.445312 14.515625 -12.59375 C 15.097656 -9.738281 16.007812 -7.875 17.25 -7 C 18.488281 -6.132812 20.222656 -5.703125 22.453125 -5.703125 L 33.25 -6.953125 L 33.25 -1.234375 L 22.453125 0.875 C 17.984375 0.875 15.003906 0.335938 13.515625 -0.734375 C 12.035156 -1.816406 10.921875 -2.707031 10.171875 -3.40625 C 9.429688 -4.113281 8.789062 -5.375 8.25 -7.1875 C 7.707031 -9.007812 7.3125 -10.539062 7.0625 -11.78125 C 6.820312 -13.019531 6.617188 -15.046875 6.453125 -17.859375 C 6.285156 -22.660156 6.203125 -27.789062 6.203125 -33.25 Z M 6.203125 -33.25 "/></g></g><g style="fill:#ffffff;fill-opacity:1;"><g transform="translate(172.415376, 112.235549)"><path style="stroke:none" d="M 37.96875 -1.234375 C 31.59375 0.171875 27.144531 0.875 24.625 0.875 C 22.101562 0.875 20.160156 0.8125 18.796875 0.6875 C 17.429688 0.5625 16.191406 0.234375 15.078125 -0.296875 C 13.960938 -0.835938 12.988281 -1.296875 12.15625 -1.671875 C 11.332031 -2.046875 10.585938 -2.789062 9.921875 -3.90625 C 9.265625 -5.019531 8.726562 -5.925781 8.3125 -6.625 C 7.894531 -7.332031 7.5625 -8.554688 7.3125 -10.296875 C 7.070312 -12.035156 6.867188 -13.441406 6.703125 -14.515625 C 6.535156 -15.585938 6.410156 -17.34375 6.328125 -19.78125 C 6.242188 -22.226562 6.203125 -24.195312 6.203125 -25.6875 L 6.203125 -39.703125 C 6.203125 -45.160156 6.328125 -48.695312 6.578125 -50.3125 C 6.828125 -51.925781 7.070312 -53.640625 7.3125 -55.453125 C 7.5625 -57.273438 7.894531 -58.578125 8.3125 -59.359375 C 8.726562 -60.148438 9.265625 -61.125 9.921875 -62.28125 C 10.585938 -63.4375 11.332031 -64.238281 12.15625 -64.6875 C 12.988281 -65.144531 13.960938 -65.644531 15.078125 -66.1875 C 16.191406 -66.726562 17.429688 -67.078125 18.796875 -67.234375 C 20.160156 -67.398438 21.707031 -67.484375 23.4375 -67.484375 C 25.175781 -67.484375 26.75 -67.359375 28.15625 -67.109375 C 29.5625 -66.867188 30.738281 -66.375 31.6875 -65.625 C 32.644531 -64.882812 33.472656 -64.179688 34.171875 -63.515625 C 34.878906 -62.859375 35.457031 -61.785156 35.90625 -60.296875 C 36.363281 -58.804688 36.71875 -57.539062 36.96875 -56.5 C 37.21875 -55.46875 37.40625 -53.859375 37.53125 -51.671875 C 37.65625 -49.484375 37.71875 -47.726562 37.71875 -46.40625 L 37.71875 -39.953125 L 38.21875 -33.25 L 12.90625 -32.625 L 13.40625 -29.53125 C 13.40625 -18.9375 13.816406 -12.816406 14.640625 -11.171875 C 15.960938 -8.441406 17.492188 -6.867188 19.234375 -6.453125 C 20.390625 -6.117188 22.640625 -5.953125 25.984375 -5.953125 C 29.335938 -5.953125 33.332031 -6.488281 37.96875 -7.5625 Z M 14.140625 -49.125 C 14.140625 -47.632812 14.140625 -45.398438 14.140625 -42.421875 L 13.640625 -39.328125 L 31.265625 -39.328125 L 30.640625 -42.546875 C 30.640625 -49.171875 30.1875 -53.890625 29.28125 -56.703125 C 28.375 -59.515625 26.328125 -60.921875 23.140625 -60.921875 C 19.953125 -60.921875 17.695312 -60.070312 16.375 -58.375 C 15.050781 -56.675781 14.304688 -53.59375 14.140625 -49.125 Z M 14.140625 -49.125 "/></g></g><g style="fill:#ffffff;fill-opacity:1;"><g transform="translate(216.200702, 112.235549)"><path style="stroke:none" d="M 6.328125 -19.84375 C 6.242188 -22.570312 6.203125 -26.296875 6.203125 -31.015625 C 6.203125 -35.734375 6.222656 -39 6.265625 -40.8125 C 6.304688 -42.632812 6.367188 -44.804688 6.453125 -47.328125 C 6.535156 -49.847656 6.679688 -51.75 6.890625 -53.03125 C 7.097656 -54.3125 7.382812 -55.800781 7.75 -57.5 C 8.125 -59.195312 8.597656 -60.457031 9.171875 -61.28125 C 9.753906 -62.113281 10.457031 -63.023438 11.28125 -64.015625 C 12.113281 -65.003906 13.066406 -65.664062 14.140625 -66 C 17.035156 -66.988281 20.015625 -67.484375 23.078125 -67.484375 L 32.25 -64.015625 L 32.25 -90.8125 C 35.894531 -90.8125 38.003906 -90.5625 38.578125 -90.0625 C 39.160156 -89.570312 39.453125 -87.921875 39.453125 -85.109375 L 39.453125 0 C 35.816406 0 33.707031 -0.265625 33.125 -0.796875 C 32.539062 -1.335938 32.25 -3.265625 32.25 -6.578125 L 22.453125 0.875 C 16.910156 0.875 12.648438 -0.65625 9.671875 -3.71875 C 7.691406 -5.789062 6.578125 -11.164062 6.328125 -19.84375 Z M 13.953125 -49.625 C 13.742188 -46.644531 13.617188 -44.265625 13.578125 -42.484375 C 13.535156 -40.710938 13.515625 -35.875 13.515625 -27.96875 C 13.515625 -20.070312 13.890625 -14.675781 14.640625 -11.78125 C 16.378906 -7.976562 19.023438 -5.953125 22.578125 -5.703125 L 32.75 -11.296875 L 32.25 -14.390625 L 32.25 -54.59375 L 32.75 -57.6875 L 22.578125 -60.921875 C 19.515625 -60.921875 17.40625 -59.882812 16.25 -57.8125 C 14.925781 -55.332031 14.160156 -52.601562 13.953125 -49.625 Z M 13.953125 -49.625 "/></g></g><g style="fill:#ffffff;fill-opacity:1;"><g transform="translate(263.08694, 112.235549)"><path style="stroke:none" d=""/></g></g><g style="fill:#ffffff;fill-opacity:1;"><g transform="translate(286.654101, 112.235549)"><path style="stroke:none" d="M 6.203125 -33.25 L 6.203125 -41.1875 C 6.203125 -47.226562 6.347656 -51.03125 6.640625 -52.59375 C 6.929688 -54.164062 7.257812 -55.863281 7.625 -57.6875 C 8 -59.507812 8.453125 -60.769531 8.984375 -61.46875 C 9.523438 -62.175781 10.1875 -63.023438 10.96875 -64.015625 C 11.757812 -65.003906 12.734375 -65.664062 13.890625 -66 C 16.703125 -66.988281 19.554688 -67.484375 22.453125 -67.484375 L 32.75 -65.875 C 32.75 -62.238281 31.257812 -60.421875 28.28125 -60.421875 C 27.707031 -60.421875 27.128906 -60.460938 26.546875 -60.546875 L 22.453125 -60.921875 C 18.234375 -60.921875 15.671875 -59.160156 14.765625 -55.640625 C 13.859375 -52.128906 13.40625 -46.070312 13.40625 -37.46875 C 13.40625 -28.863281 13.441406 -23.28125 13.515625 -20.71875 C 13.597656 -18.15625 13.929688 -15.445312 14.515625 -12.59375 C 15.097656 -9.738281 16.007812 -7.875 17.25 -7 C 18.488281 -6.132812 20.222656 -5.703125 22.453125 -5.703125 L 33.25 -6.953125 L 33.25 -1.234375 L 22.453125 0.875 C 17.984375 0.875 15.003906 0.335938 13.515625 -0.734375 C 12.035156 -1.816406 10.921875 -2.707031 10.171875 -3.40625 C 9.429688 -4.113281 8.789062 -5.375 8.25 -7.1875 C 7.707031 -9.007812 7.3125 -10.539062 7.0625 -11.78125 C 6.820312 -13.019531 6.617188 -15.046875 6.453125 -17.859375 C 6.285156 -22.660156 6.203125 -27.789062 6.203125 -33.25 Z M 6.203125 -33.25 "/></g></g><g style="fill:#ffffff;fill-opacity:1;"><g transform="translate(322.996754, 112.235549)"><path style="stroke:none" d="M 16.6875 -79.703125 C 15.570312 -78.585938 14.226562 -78.03125 12.65625 -78.03125 C 11.082031 -78.03125 9.738281 -78.585938 8.625 -79.703125 C 7.507812 -80.828125 6.953125 -82.191406 6.953125 -83.796875 C 6.953125 -85.410156 7.507812 -86.734375 8.625 -87.765625 C 9.738281 -88.804688 11.082031 -89.328125 12.65625 -89.328125 C 14.226562 -89.328125 15.570312 -88.785156 16.6875 -87.703125 C 17.800781 -86.628906 18.359375 -85.304688 18.359375 -83.734375 C 18.359375 -82.171875 17.800781 -80.828125 16.6875 -79.703125 Z M 9.0625 -5.203125 L 9.0625 -66.625 C 12.695312 -66.625 14.820312 -66.394531 15.4375 -65.9375 C 16.0625 -65.476562 16.375 -63.804688 16.375 -60.921875 L 16.375 0.5 C 12.738281 0.5 10.609375 0.25 9.984375 -0.25 C 9.367188 -0.75 9.0625 -2.398438 9.0625 -5.203125 Z M 9.0625 -5.203125 "/></g></g><g style="fill:#ffffff;fill-opacity:1;"><g transform="translate(348.176393, 112.235549)"><path style="stroke:none" d="M 7.078125 -28.28125 L 7.078125 -56.828125 L 7.5625 -59.921875 L 2.234375 -59.921875 L 2.234375 -66.625 L 7.5625 -66.625 L 7.078125 -70.96875 L 7.078125 -76.421875 C 10.710938 -76.421875 12.835938 -76.171875 13.453125 -75.671875 C 14.078125 -75.179688 14.390625 -73.53125 14.390625 -70.71875 L 13.890625 -66.625 L 25.3125 -66.625 C 25.3125 -63.5625 25.039062 -61.675781 24.5 -60.96875 C 23.96875 -60.269531 22.253906 -59.921875 19.359375 -59.921875 L 13.890625 -59.921875 L 14.390625 -56.828125 L 14.390625 -28.28125 C 14.390625 -18.851562 14.632812 -12.734375 15.125 -9.921875 C 15.625 -7.109375 17.035156 -5.703125 19.359375 -5.703125 L 27.796875 -5.703125 L 27.796875 0 L 19.234375 0.625 C 13.523438 0.625 10.070312 -1.128906 8.875 -4.640625 C 7.675781 -8.160156 7.078125 -16.039062 7.078125 -28.28125 Z M 7.078125 -28.28125 "/></g></g><g style="fill:#ffffff;fill-opacity:1;"><g transform="translate(375.960775, 112.235549)"><path style="stroke:none" d="M 16.6875 -79.703125 C 15.570312 -78.585938 14.226562 -78.03125 12.65625 -78.03125 C 11.082031 -78.03125 9.738281 -78.585938 8.625 -79.703125 C 7.507812 -80.828125 6.953125 -82.191406 6.953125 -83.796875 C 6.953125 -85.410156 7.507812 -86.734375 8.625 -87.765625 C 9.738281 -88.804688 11.082031 -89.328125 12.65625 -89.328125 C 14.226562 -89.328125 15.570312 -88.785156 16.6875 -87.703125 C 17.800781 -86.628906 18.359375 -85.304688 18.359375 -83.734375 C 18.359375 -82.171875 17.800781 -80.828125 16.6875 -79.703125 Z M 9.0625 -5.203125 L 9.0625 -66.625 C 12.695312 -66.625 14.820312 -66.394531 15.4375 -65.9375 C 16.0625 -65.476562 16.375 -63.804688 16.375 -60.921875 L 16.375 0.5 C 12.738281 0.5 10.609375 0.25 9.984375 -0.25 C 9.367188 -0.75 9.0625 -2.398438 9.0625 -5.203125 Z M 9.0625 -5.203125 "/></g></g><g style="fill:#ffffff;fill-opacity:1;"><g transform="translate(401.140413, 112.235549)"><path style="stroke:none" d="M 37.96875 -1.234375 C 31.59375 0.171875 27.144531 0.875 24.625 0.875 C 22.101562 0.875 20.160156 0.8125 18.796875 0.6875 C 17.429688 0.5625 16.191406 0.234375 15.078125 -0.296875 C 13.960938 -0.835938 12.988281 -1.296875 12.15625 -1.671875 C 11.332031 -2.046875 10.585938 -2.789062 9.921875 -3.90625 C 9.265625 -5.019531 8.726562 -5.925781 8.3125 -6.625 C 7.894531 -7.332031 7.5625 -8.554688 7.3125 -10.296875 C 7.070312 -12.035156 6.867188 -13.441406 6.703125 -14.515625 C 6.535156 -15.585938 6.410156 -17.34375 6.328125 -19.78125 C 6.242188 -22.226562 6.203125 -24.195312 6.203125 -25.6875 L 6.203125 -39.703125 C 6.203125 -45.160156 6.328125 -48.695312 6.578125 -50.3125 C 6.828125 -51.925781 7.070312 -53.640625 7.3125 -55.453125 C 7.5625 -57.273438 7.894531 -58.578125 8.3125 -59.359375 C 8.726562 -60.148438 9.265625 -61.125 9.921875 -62.28125 C 10.585938 -63.4375 11.332031 -64.238281 12.15625 -64.6875 C 12.988281 -65.144531 13.960938 -65.644531 15.078125 -66.1875 C 16.191406 -66.726562 17.429688 -67.078125 18.796875 -67.234375 C 20.160156 -67.398438 21.707031 -67.484375 23.4375 -67.484375 C 25.175781 -67.484375 26.75 -67.359375 28.15625 -67.109375 C 29.5625 -66.867188 30.738281 -66.375 31.6875 -65.625 C 32.644531 -64.882812 33.472656 -64.179688 34.171875 -63.515625 C 34.878906 -62.859375 35.457031 -61.785156 35.90625 -60.296875 C 36.363281 -58.804688 36.71875 -57.539062 36.96875 -56.5 C 37.21875 -55.46875 37.40625 -53.859375 37.53125 -51.671875 C 37.65625 -49.484375 37.71875 -47.726562 37.71875 -46.40625 L 37.71875 -39.953125 L 38.21875 -33.25 L 12.90625 -32.625 L 13.40625 -29.53125 C 13.40625 -18.9375 13.816406 -12.816406 14.640625 -11.171875 C 15.960938 -8.441406 17.492188 -6.867188 19.234375 -6.453125 C 20.390625 -6.117188 22.640625 -5.953125 25.984375 -5.953125 C 29.335938 -5.953125 33.332031 -6.488281 37.96875 -7.5625 Z M 14.140625 -49.125 C 14.140625 -47.632812 14.140625 -45.398438 14.140625 -42.421875 L 13.640625 -39.328125 L 31.265625 -39.328125 L 30.640625 -42.546875 C 30.640625 -49.171875 30.1875 -53.890625 29.28125 -56.703125 C 28.375 -59.515625 26.328125 -60.921875 23.140625 -60.921875 C 19.953125 -60.921875 17.695312 -60.070312 16.375 -58.375 C 15.050781 -56.675781 14.304688 -53.59375 14.140625 -49.125 Z M 14.140625 -49.125 "/></g></g><g style="fill:#ffffff;fill-opacity:1;"><g transform="translate(444.925739, 112.235549)"><path style="stroke:none" d="M 31.140625 -3.21875 C 30.148438 -1.976562 28.828125 -1.046875 27.171875 -0.421875 C 25.515625 0.191406 23.488281 0.5 21.09375 0.5 C 18.695312 0.5 13.773438 -0.117188 6.328125 -1.359375 L 6.328125 -7.9375 C 6.660156 -7.9375 8.75 -7.726562 12.59375 -7.3125 C 16.4375 -6.90625 19.3125 -6.703125 21.21875 -6.703125 C 25.84375 -6.703125 28.15625 -11.003906 28.15625 -19.609375 C 28.15625 -20.179688 28.15625 -20.757812 28.15625 -21.34375 C 28.070312 -23.988281 25.507812 -27.234375 20.46875 -31.078125 C 15.425781 -34.921875 11.703125 -38.289062 9.296875 -41.1875 C 6.898438 -44.082031 5.703125 -47.019531 5.703125 -50 C 5.703125 -52.976562 5.742188 -55.046875 5.828125 -56.203125 C 5.910156 -57.359375 6.195312 -58.800781 6.6875 -60.53125 C 7.1875 -62.269531 7.9375 -63.515625 8.9375 -64.265625 C 11.5 -66.328125 15.382812 -67.359375 20.59375 -67.359375 L 32.375 -65.625 C 32.375 -61.988281 30.890625 -60.171875 27.921875 -60.171875 C 27.335938 -60.171875 26.753906 -60.210938 26.171875 -60.296875 L 21.09375 -61.03125 C 17.039062 -61.03125 14.554688 -60.125 13.640625 -58.3125 C 12.898438 -56.738281 12.53125 -54.441406 12.53125 -51.421875 C 12.53125 -48.398438 15.753906 -44.328125 22.203125 -39.203125 C 25.179688 -36.972656 27.4375 -35.195312 28.96875 -33.875 C 30.5 -32.550781 31.988281 -30.8125 33.4375 -28.65625 C 34.882812 -26.507812 35.609375 -24.421875 35.609375 -22.390625 C 35.609375 -20.367188 35.566406 -18.632812 35.484375 -17.1875 C 35.398438 -15.738281 35.210938 -14.019531 34.921875 -12.03125 C 34.628906 -10.050781 34.171875 -8.398438 33.546875 -7.078125 C 32.929688 -5.753906 32.128906 -4.46875 31.140625 -3.21875 Z M 31.140625 -3.21875 "/></g></g></g></g><path style=" stroke:none;fill-rule:nonzero;fill:#ffffff;fill-opacity:1;" d="M 636.234375 1420.164062 L 699.230469 1419.761719 L 699.363281 1440.761719 L 636.367188 1441.164062 M 720.226562 1419.628906 L 783.222656 1419.226562 L 783.355469 1440.222656 L 720.359375 1440.625 M 804.21875 1419.089844 L 867.214844 1418.6875 L 867.347656 1439.6875 L 804.355469 1440.089844 M 888.210938 1418.554688 L 951.207031 1418.152344 L 951.339844 1439.148438 L 888.347656 1439.550781 M 972.207031 1418.015625 L 1035.199219 1417.613281 L 1035.335938 1438.613281 L 972.339844 1439.015625 M 1056.199219 1417.480469 L 1119.191406 1417.078125 L 1119.328125 1438.074219 L 1056.332031 1438.476562 M 1140.191406 1416.941406 L 1203.1875 1416.539062 L 1203.320312 1437.539062 L 1140.324219 1437.941406 M 1224.183594 1416.40625 L 1287.179688 1416.003906 L 1287.3125 1437 L 1224.320312 1437.402344 "/></g></svg>